<?xml version="1.0" encoding="utf-8"?>
<!-- Generator: Adobe Illustrator 26.0.2, SVG Export Plug-In . SVG Version: 6.00 Build 0)  -->
<svg version="1.1" id="Layer_1" xmlns="http://www.w3.org/2000/svg" xmlns:xlink="http://www.w3.org/1999/xlink" x="0px" y="0px"
	 viewBox="0 0 150 36" style="enable-background:new 0 0 150 36;" xml:space="preserve" width="150" height="36">
<style type="text/css">
	.st0{fill:#131D2F;}
	.st1{fill:#525CA9;}
	.st2{fill:#04BEE8;}
	.st3{fill:#FFFFFF;}
</style>
<rect x="-184.74" y="-152.15" class="st0"/>
<g>
	<g>
		<path class="st1" d="M1291.36,907.44c-27.91-12.24-49.95-29.02-66.11-50.32c-16.16-21.31-25.23-45.18-27.18-71.62h124.15
			c1.47,14.21,8.08,25.7,19.83,34.52c11.76,8.82,26.2,13.23,43.34,13.23c15.67,0,27.79-3.06,36.36-9.18
			c8.57-6.12,12.86-14.07,12.86-23.88c0-11.75-6.13-20.44-18.36-26.08c-12.25-5.63-32.08-11.86-59.51-18.73
			c-29.38-6.85-53.88-14.07-73.46-21.67c-19.6-7.59-36.49-19.59-50.69-36c-14.22-16.4-21.31-38.56-21.31-66.48
			c0-23.51,6.49-44.93,19.47-64.29c12.97-19.34,32.07-34.64,57.3-45.91c25.22-11.26,55.22-16.9,89.99-16.9
			c51.42,0,91.94,12.74,121.58,38.2c29.63,25.48,46.65,59.27,51.06,101.38h-116.07c-1.97-14.2-8.2-25.46-18.73-33.79
			c-10.54-8.32-24.37-12.48-41.51-12.48c-14.7,0-25.97,2.82-33.79,8.45c-7.84,5.64-11.75,13.35-11.75,23.13
			c0,11.76,6.24,20.58,18.73,26.46c12.48,5.87,31.96,11.75,58.41,17.63c30.36,7.84,55.09,15.55,74.19,23.13
			c19.1,7.6,35.87,19.84,50.32,36.73c14.44,16.9,21.91,39.56,22.41,67.95c0,24-6.75,45.43-20.21,64.29
			c-13.47,18.85-32.82,33.67-58.03,44.44c-25.23,10.76-54.49,16.16-87.8,16.16C1351.11,925.81,1319.28,919.68,1291.36,907.44z"/>
		<path class="st2" d="M1631.12,603.31c17.39-31.84,41.62-56.32,72.73-73.47c31.09-17.14,66.72-25.71,106.88-25.71
			c51.42,0,94.4,13.47,128.93,40.41c34.53,26.94,57.17,64.9,67.95,113.87h-133.71c-11.27-31.34-33.05-47.02-65.38-47.02
			c-23.03,0-41.4,8.95-55.1,26.82c-13.72,17.88-20.57,43.47-20.57,76.76c0,33.31,6.85,58.9,20.57,76.77
			c13.71,17.88,32.07,26.81,55.1,26.81c32.33,0,54.11-15.66,65.38-47.01h133.71c-10.78,48-33.56,85.71-68.32,113.13
			c-34.78,27.43-77.63,41.14-128.56,41.14c-40.16,0-75.79-8.56-106.88-25.71c-31.11-17.14-55.35-41.62-72.73-73.47
			c-17.39-31.83-26.08-69.06-26.08-111.66C1605.04,672.36,1613.73,635.15,1631.12,603.31z"/>
		<path class="st3" d="M2698.89,376.3v543.63h-125.63V376.3H2698.89z"/>
	</g>
	<path class="st3" d="M1003.4,510.01v58.03c-11.76-19.1-28.53-34.53-50.32-46.28c-21.8-11.75-47.14-17.63-76.04-17.63
		c-33.79,0-64.41,8.57-91.82,25.71c-27.43,17.15-49.11,41.63-65.02,73.47c-15.92,31.84-23.88,68.81-23.88,110.92
		c0,42.13,7.96,79.23,23.88,111.3c15.91,32.08,37.59,56.82,65.02,74.2c27.42,17.39,57.77,26.08,91.09,26.08
		c28.89,0,54.24-5.88,76.04-17.63c21.79-11.76,38.81-27.18,51.06-46.29v58.04h125.62V510.01H1003.4z M977.32,789.17
		c-17.4,18.12-38.57,27.18-63.55,27.18c-24.97,0-46.17-9.18-63.54-27.55c-17.39-18.36-26.08-43.22-26.08-74.57
		c0-31.34,8.69-55.94,26.08-73.82c17.38-17.88,38.57-26.81,63.54-26.81c24.98,0,46.16,9.07,63.55,27.18
		c17.38,18.12,26.08,42.86,26.08,74.19C1003.4,746.31,994.7,771.06,977.32,789.17z"/>
	<path class="st3" d="M2356.57,510.01v58.03c-11.76-19.1-28.53-34.53-50.32-46.28c-21.8-11.75-47.14-17.63-76.04-17.63
		c-33.79,0-64.41,8.57-91.82,25.71c-27.43,17.15-49.11,41.63-65.02,73.47c-15.92,31.84-23.88,68.81-23.88,110.92
		c0,42.13,7.96,79.23,23.88,111.3c15.91,32.08,37.58,56.82,65.02,74.2c27.42,17.39,57.77,26.08,91.09,26.08
		c28.89,0,54.24-5.88,76.04-17.63c21.79-11.76,38.81-27.18,51.06-46.29v58.04h125.62V510.01H2356.57z M2330.49,789.17
		c-17.4,18.12-38.57,27.18-63.55,27.18c-24.97,0-46.17-9.18-63.54-27.55c-17.39-18.36-26.08-43.22-26.08-74.57
		c0-31.34,8.69-55.94,26.08-73.82c17.38-17.88,38.57-26.81,63.54-26.81c24.98,0,46.16,9.07,63.55,27.18
		c17.38,18.12,26.08,42.86,26.08,74.19C2356.57,746.31,2347.86,771.06,2330.49,789.17z"/>
</g>
<path class="st3" d="M634.62,484.3c-14.21-24.98-35.52-44.57-63.91-58.77c-28.41-14.2-63.18-21.3-104.32-21.3h-77.87H262.9v515.7
	h125.63V734.81h77.87c42.11,0,77.37-7.59,105.78-22.78c28.39-15.18,49.46-35.14,63.17-59.87c13.71-24.72,20.58-52.03,20.58-81.91
	C655.93,537.92,648.82,509.28,634.62,484.3z M510.47,618c-11.76,11.27-29.64,16.9-53.63,16.9h-68.32V505.6h68.32
	c23.99,0,41.87,5.64,53.63,16.9c11.75,11.27,17.63,27.18,17.63,47.76C528.1,590.82,522.22,606.73,510.47,618z"/>
</svg>
